PathFileType	4	(X/Y/Z)	G:\GRF\jawan data\CompiledGRF\03. Mohit Kumar\0231~ac~Walking 04_markers.trc
DataRate	CameraRate	NumFrames	NumMarkers	Units	OrigDataRate	OrigDataStartFrame	OrigNumFrames
100.000000	100.000000	9	18	mm	100.000000	403	1076
Frame#	Time	c7			r should			l should			sacrum			r asis			r bar 1			r knee 1			r bar 2			r mall			r heel			r met			l asis			l bar 1			l knee 1			l bar 2			l mall			l heel			l met			
		X1	Y1	Z1	X2	Y2	Z2	X3	Y3	Z3	X4	Y4	Z4	X5	Y5	Z5	X6	Y6	Z6	X7	Y7	Z7	X8	Y8	Z8	X9	Y9	Z9	X10	Y10	Z10	X11	Y11	Z11	X12	Y12	Z12	X13	Y13	Z13	X14	Y14	Z14	X15	Y15	Z15	X16	Y16	Z16	X17	Y17	Z17	X18	Y18	Z18	

404	4.03	-1732.730346679688	1528.07470703125	301.2356872558594	-1644.687133789063	1468.22216796875	472.5201110839844	-1663.324829101563	1482.25927734375	126.8462524414063	-1794.4267578125	1061.8427734375	283.6903686523438	nan	nan	nan	-1675.156127929688	613.763671875	458.5855102539063	-1658.07958984375	528.0984497070313	404.0393676757813	nan	nan	nan	nan	nan	nan	nan	nan	nan	-1574.25146484375	46.34328842163086	345.8175048828125	nan	nan	nan	-1558.865844726563	630.3698120117188	59.06997680664063	-1525.299560546875	539.2302856445313	105.6076583862305	-1725.654907226563	340.8868103027344	67.62051391601563	nan	nan	nan	nan	nan	nan	nan	nan	nan	
405	4.04	-1724.160522460938	1528.173950195313	301.97119140625	-1635.868408203125	1468.337524414063	473.1605529785156	-1654.8662109375	1482.13037109375	127.5050659179688	-1786.320190429688	1061.744262695313	283.5877990722656	nan	nan	nan	-1673.22802734375	613.752197265625	458.8861694335938	-1656.837768554688	527.9214477539063	404.37646484375	nan	nan	nan	nan	nan	nan	nan	nan	nan	-1574.395874023438	46.51392364501953	345.8655395507813	nan	nan	nan	-1543.794189453125	632.7988891601563	59.88461685180664	-1510.009399414063	541.732666015625	106.7062606811523	-1703.3994140625	335.9147033691406	67.62770080566406	nan	nan	nan	nan	nan	nan	nan	nan	nan	
406	4.05	-1715.420043945313	1528.100952148438	302.5896911621094	-1626.977172851563	1468.22021484375	473.7753295898438	-1646.259643554688	1481.783081054688	128.0964050292969	-1778.33251953125	1061.557739257813	283.4029846191406	nan	nan	nan	-1671.135375976563	613.8025512695313	459.1224975585938	-1655.651123046875	527.7568969726563	404.70361328125	nan	nan	nan	nan	nan	nan	nan	nan	nan	-1574.230712890625	46.37041473388672	346.0668334960938	nan	nan	nan	-1528.610473632813	634.909423828125	60.81963348388672	-1495.477661132813	544.1723022460938	107.9442977905273	-1681.26806640625	330.9788818359375	67.85915374755859	nan	nan	nan	nan	nan	nan	nan	nan	nan	
407	4.06	-1706.568725585938	1527.880737304688	303.1351013183594	-1618.088623046875	1467.90771484375	474.3299865722656	-1637.616333007813	1481.17822265625	128.6698760986328	-1770.389282226563	1061.2666015625	283.193359375	nan	nan	nan	-1668.769775390625	613.7984008789063	459.3365173339844	-1654.366333007813	527.6536254882813	405.0006713867188	nan	nan	nan	nan	nan	nan	nan	nan	nan	-1573.847290039063	46.17304992675781	346.4086303710938	nan	nan	nan	-1515.262084960938	636.7752685546875	61.68951797485352	-1481.75244140625	546.4857177734375	109.0851135253906	-1659.380126953125	326.1273498535156	68.24018859863281	nan	nan	nan	nan	nan	nan	nan	nan	nan	
408	4.07	-1697.6142578125	1527.521728515625	303.579833984375	-1609.266845703125	1467.433349609375	474.8368225097656	-1628.891357421875	1480.351928710938	129.1832122802734	-1762.561279296875	1060.947875976563	282.9853515625	nan	nan	nan	-1666.20361328125	613.758544921875	459.5280456542969	-1652.805419921875	527.47705078125	405.2178344726563	nan	nan	nan	nan	nan	nan	nan	nan	nan	-1574.067260742188	46.37157440185547	346.2140197753906	nan	nan	nan	-1502.303344726563	637.7099609375	62.45125198364258	-1468.43359375	548.4833374023438	110.2653656005859	-1636.915405273438	320.7428588867188	68.7078857421875	nan	nan	nan	nan	nan	nan	nan	nan	nan	
409	4.08	-1688.57421875	1527.043579101563	303.9659729003906	-1600.373168945313	1466.718872070313	475.2277221679688	-1620.092895507813	1479.367553710938	129.6095581054688	-1754.78369140625	1060.573852539063	282.7978820800781	nan	nan	nan	-1663.212890625	613.6734619140625	459.7065124511719	-1651.0712890625	527.318359375	405.3673400878906	nan	nan	nan	nan	nan	nan	nan	nan	nan	-1573.921875	46.31380081176758	346.3172302246094	nan	nan	nan	-1491.079345703125	638.67333984375	63.05316162109375	-1455.792602539063	550.1688842773438	111.2762832641602	-1614.63525390625	315.4694519042969	69.12177276611328	nan	nan	nan	nan	nan	nan	nan	nan	nan	
410	4.09	-1679.485107421875	1526.459106445313	304.2964477539063	-1591.419555664063	1465.783447265625	475.5109252929688	-1611.218627929688	1478.259399414063	129.9276275634766	-1746.984130859375	1060.144653320313	282.652099609375	nan	nan	nan	-1660.021484375	613.6653442382813	459.8711242675781	-1648.991088867188	527.1419677734375	405.3193664550781	nan	nan	nan	nan	nan	nan	nan	nan	nan	-1574.001953125	46.11731719970703	346.1425170898438	nan	nan	nan	-1480.433837890625	639.0877075195313	63.67483901977539	-1443.816772460938	551.543701171875	112.1832733154297	-1594.659057617188	311.9065856933594	69.36895751953125	nan	nan	nan	nan	nan	nan	nan	nan	nan	
411	4.1	-1670.323974609375	1525.768798828125	304.5458984375	-1582.40966796875	1464.68701171875	475.7224731445313	-1602.382690429688	1477.055419921875	130.18115234375	-1739.223266601563	1059.672607421875	282.5216064453125	nan	nan	nan	-1656.610107421875	613.6514892578125	460.0426940917969	-1646.849487304688	526.9712524414063	405.1294555664063	nan	nan	nan	nan	nan	nan	nan	nan	nan	-1574.2392578125	46.36233520507813	346.0910339355469	nan	nan	nan	-1471.642822265625	639.130126953125	64.56653594970703	-1432.703125	552.7073974609375	113.2983703613281	-1573.306518554688	307.2433471679688	69.85069274902344	nan	nan	nan	nan	nan	nan	nan	nan	nan	
412	4.11	-1661.188720703125	1524.98046875	304.7186889648438	-1573.32275390625	1463.461059570313	475.8392944335938	-1593.479125976563	1475.799072265625	130.3339691162109	-1731.375244140625	1059.0771484375	282.3862915039063	nan	nan	nan	-1652.843994140625	613.5476684570313	460.2037658691406	-1643.920166015625	526.6024780273438	405.237548828125	nan	nan	nan	nan	nan	nan	nan	nan	nan	-1574.256958007813	46.33658218383789	346.0491027832031	nan	nan	nan	-1463.637084960938	638.564697265625	65.64787292480469	-1422.032836914063	553.3448486328125	114.2954635620117	-1551.57666015625	302.0801696777344	70.39625549316406	nan	nan	nan	nan	nan	nan	nan	nan	nan	
